#Custom OBJ Export

#vertices
# format: 'v' x y z
v -0.241895 0.084639 -0.010107
v 0.000000 0.000000 0.672350
v -0.539885 0.000000 0.381073
v 0.560175 0.000000 0.378184
v 0.502692 0.000000 0.574789
v 0.369255 0.066648 0.599386
v 0.422082 0.136675 0.564322
v 0.369422 0.101576 0.523420
v 0.139829 0.021572 -0.007229
v 0.138729 0.021226 -0.114034
v 0.074027 0.005951 -0.114034
v -0.361961 0.217803 0.368180
v -0.410723 0.272036 0.162135
v -0.509812 0.339828 0.372403
v 0.364819 -0.101362 0.864912
v 0.424985 -0.019598 0.833359
v 0.366079 -0.058649 0.800062
v 0.367338 -0.015935 0.735213
v 0.473271 0.091016 0.737597
v 0.368574 0.026751 0.670119
v 0.410131 0.092558 0.629216
v -0.359475 0.152114 0.600255
v -0.192488 0.029471 0.456357
v -0.360339 0.190485 0.488080
v -0.192613 -0.003925 0.552048
v 0.003228 -0.044894 0.466161
v 0.002562 -0.077801 0.549917
v 0.204294 -0.021080 0.512499
v 0.203509 -0.056658 0.588607
v -0.359467 0.103810 0.703732
v -0.193461 -0.045582 0.640385
v 0.001257 -0.117508 0.627171
v 0.202137 -0.097773 0.658747
v -0.360711 0.047867 0.794471
v -0.195098 -0.094537 0.720691
v -0.000739 -0.163226 0.697396
v 0.200447 -0.143339 0.725656
v -0.362388 -0.008999 0.880806
v -0.196803 -0.147784 0.800315
v -0.002607 -0.212878 0.768916
v 0.199083 -0.189591 0.795877
v -0.164572 0.053349 0.161235
v -0.225612 0.079034 -0.038107
v -0.299397 0.164373 0.159049
v -0.044304 0.004142 -0.022668
v -0.135640 0.029706 -0.030387
v -0.019997 0.007476 0.180412
v 0.047445 0.002438 -0.014949
v 0.128163 0.021758 0.211554
v 0.381193 0.173848 0.328931
v 0.266240 0.082681 0.257133
v -0.193009 0.053707 0.354094
v 0.003314 -0.019529 0.376505
v 0.204537 0.008334 0.430867
v -0.308922 0.152094 -0.045826
v -0.246096 0.094179 -0.114034
v -0.184034 0.052980 -0.114034
v -0.055549 0.006050 -0.114034
v -0.119905 0.023640 -0.114034
v 0.007823 0.000067 -0.114034
v -0.196960 -0.153115 0.808408
v -0.197727 -0.179120 0.847890
v -0.454453 0.115794 0.827482
v -0.477282 0.193208 0.744372
v -0.402844 0.225121 0.493496
v -0.423190 0.202702 0.615312
v -0.440212 0.045467 0.911058
v -0.439452 0.035652 0.924467
v -0.362785 -0.022453 0.901233
v 0.401997 -0.096275 0.916548
v 0.422984 -0.061375 0.895553
v -0.003583 -0.245967 0.819153
v 0.198173 -0.220451 0.842730
v 0.364518 -0.111570 0.880410
v 0.435904 0.174205 0.508160
v 0.439860 0.171842 0.524112
v 0.226472 0.058988 0.000490
v 0.000000 -0.000000 -0.005968
v -0.440382 0.000000 0.634352
v 0.206531 0.039590 -0.001540
v 0.493545 0.064626 0.811410

#UV coordinates
# format: 'vt' u v
vt 0.715911 0.317543
vt 0.500000 1.000000
vt 0.981889 0.708723
vt 0.000000 0.705834
vt 0.051308 0.902439
vt 0.833333 0.611686
vt 0.895331 0.548381
vt 0.833333 0.534024
vt 0.614704 0.106805
vt 0.613773 0.000000
vt 0.560046 0.000000
vt 0.166667 0.379638
vt 0.116566 0.204625
vt 0.000000 0.341041
vt 0.833333 0.922337
vt 0.902901 0.850045
vt 0.833333 0.844675
vt 0.833333 0.767012
vt 0.957135 0.708462
vt 0.833333 0.689349
vt 0.881466 0.620975
vt 0.166667 0.586425
vt 0.333333 0.515195
vt 0.166667 0.483031
vt 0.333333 0.612156
vt 0.500000 0.547359
vt 0.500000 0.637887
vt 0.666667 0.579523
vt 0.666667 0.663618
vt 0.166667 0.689819
vt 0.333333 0.709117
vt 0.500000 0.728415
vt 0.666667 0.747714
vt 0.166667 0.793213
vt 0.333333 0.806078
vt 0.500000 0.818944
vt 0.666667 0.831809
vt 0.166667 0.896606
vt 0.333333 0.903039
vt 0.500000 0.909472
vt 0.666667 0.915905
vt 0.359547 0.250941
vt 0.309446 0.075928
vt 0.238056 0.227783
vt 0.462075 0.091366
vt 0.385760 0.083647
vt 0.481037 0.274098
vt 0.538389 0.099085
vt 0.602528 0.297256
vt 0.849045 0.348814
vt 0.724018 0.320414
vt 0.333333 0.418234
vt 0.500000 0.456831
vt 0.666667 0.495427
vt 0.233131 0.068208
vt 0.291414 0.000000
vt 0.345141 0.000000
vt 0.452593 0.000000
vt 0.398867 0.000000
vt 0.506320 0.000000
vt 0.333333 0.912732
vt 0.333333 0.960014
vt 0.059472 0.784938
vt 0.031469 0.674164
vt 0.118493 0.473735
vt 0.094001 0.575206
vt 0.077737 0.893174
vt 0.078913 0.909756
vt 0.166667 0.921069
vt 0.877935 0.962053
vt 0.901975 0.924987
vt 0.500000 0.969634
vt 0.666667 0.972015
vt 0.833333 0.940897
vt 0.911855 0.487301
vt 0.916407 0.500401
vt 0.691018 0.114524
vt 0.500000 0.321682
vt 0.893076 0.962002
vt 0.268990 0.326110
vt 0.982493 0.784283

#normals
# format: 'vn' x y z
# should be normalized
vn -0.148176 -0.986493 -0.069825
vn -0.010535 -0.998232 -0.058501
vn 0.054689 -0.993345 -0.101366
vn -0.022712 -0.998806 -0.043250
vn 0.000000 -1.000000 0.000000
vn -0.623806 0.697864 0.351926
vn -0.676570 0.672328 0.300379
vn -0.641793 0.719049 0.266590
vn -0.304755 0.952364 -0.011274
vn -0.281055 0.959692 -0.000214
vn -0.163839 0.986487 -0.000518
vn 0.668608 0.737230 0.097237
vn 0.679051 0.734088 0.002234
vn 0.635224 0.766345 0.095953
vn -0.606930 0.669086 0.428905
vn -0.653326 0.638021 0.407547
vn -0.606931 0.669083 0.428909
vn -0.606063 0.669602 0.429325
vn -0.652817 0.641638 0.402655
vn -0.610327 0.679771 0.406709
vn -0.662615 0.657257 0.359103
vn 0.666206 0.692568 0.276620
vn 0.527122 0.815783 0.237993
vn 0.665130 0.719814 0.198670
vn 0.528845 0.784282 0.324384
vn 0.071142 0.944690 0.320156
vn 0.078986 0.907332 0.412929
vn -0.392811 0.850869 0.348885
vn -0.381108 0.820617 0.425846
vn 0.665397 0.654441 0.359100
vn 0.528975 0.743181 0.409716
vn 0.086573 0.859827 0.503193
vn -0.370601 0.788015 0.491617
vn 0.659547 0.628819 0.411806
vn 0.528021 0.709929 0.466042
vn 0.093300 0.824957 0.557442
vn -0.367464 0.775986 0.512656
vn 0.659559 0.621556 0.422670
vn 0.530269 0.700720 0.477291
vn 0.093866 0.824558 0.557937
vn -0.371213 0.778749 0.505719
vn 0.465771 0.884896 -0.004128
vn 0.581119 0.812742 -0.041859
vn 0.674614 0.737912 -0.019554
vn 0.159120 0.986775 -0.030927
vn 0.371778 0.927612 -0.036279
vn 0.117800 0.992727 0.024817
vn -0.091776 0.995561 -0.020866
vn -0.264215 0.962381 0.063354
vn -0.679482 0.712002 0.177077
vn -0.553992 0.826405 0.100736
vn 0.529040 0.839467 0.124144
vn 0.074687 0.978969 0.189848
vn -0.395256 0.889242 0.230263
vn 0.668207 0.741274 -0.063349
vn 0.607721 0.794131 -0.005551
vn 0.484911 0.874555 -0.003744
vn 0.188226 0.982115 -0.004680
vn 0.331300 0.943506 -0.006101
vn 0.004020 0.999990 -0.001815
vn 0.473043 0.731520 0.491028
vn 0.345825 0.780497 0.520797
vn 0.628262 0.649322 0.428565
vn 0.638882 0.670514 0.377147
vn 0.633938 0.747966 0.196645
vn 0.638170 0.713206 0.289960
vn 0.623474 0.647318 0.438474
vn 0.623476 0.647315 0.438475
vn 0.660875 0.620799 0.421726
vn -0.653322 0.638032 0.407536
vn -0.653321 0.638027 0.407546
vn 0.087358 0.831151 0.549141
vn -0.361601 0.781825 0.507930
vn -0.610096 0.667082 0.427533
vn -0.692237 0.678491 0.245881
vn -0.697820 0.662923 0.271255
vn -0.424949 0.905148 -0.011175
vn -0.076714 -0.997053 0.000000
vn 0.000000 -1.000000 0.000000
vn 0.088192 -0.995607 -0.031462
vn -0.653322 0.638022 0.407551

#faces (index data)
# format: vertex/Uvcoordinate/normal
f 1/1/1 2/2/2 3/3/3
f 4/4/4 5/5/5 2/2/2
f 6/6/6 7/7/7 8/8/8
f 9/9/9 10/10/10 11/11/11
f 12/12/12 13/13/13 14/14/14
f 15/15/15 16/16/16 17/17/17
f 16/16/16 18/18/18 17/17/17
f 18/18/18 19/19/19 20/20/20
f 20/20/20 21/21/21 6/6/6
f 22/22/22 23/23/23 24/24/24
f 25/25/25 26/26/26 23/23/23
f 27/27/27 28/28/28 26/26/26
f 29/29/29 6/6/6 28/28/28
f 30/30/30 25/25/25 22/22/22
f 31/31/31 27/27/27 25/25/25
f 32/32/32 29/29/29 27/27/27
f 33/33/33 20/20/20 29/29/29
f 34/34/34 31/31/31 30/30/30
f 35/35/35 32/32/32 31/31/31
f 36/36/36 33/33/33 32/32/32
f 37/37/37 18/18/18 33/33/33
f 38/38/38 35/35/35 34/34/34
f 39/39/39 36/36/36 35/35/35
f 40/40/40 37/37/37 36/36/36
f 41/41/41 17/17/17 37/37/37
f 42/42/42 43/43/43 44/44/44
f 42/42/42 45/45/45 46/46/46
f 47/47/47 48/48/48 45/45/45
f 49/49/49 9/9/9 48/48/48
f 8/8/8 50/50/50 51/51/51
f 52/52/52 44/44/44 12/12/12
f 52/52/52 47/47/47 42/42/42
f 53/53/53 49/49/49 47/47/47
f 54/54/54 51/51/51 49/49/49
f 44/44/44 55/55/55 13/13/13
f 43/43/43 56/56/56 55/55/55
f 46/46/46 57/57/57 43/43/43
f 46/46/46 58/58/58 59/59/59
f 45/45/45 60/60/60 58/58/58
f 48/48/48 11/11/11 60/60/60
f 24/24/24 52/52/52 12/12/12
f 23/23/23 53/53/53 52/52/52
f 26/26/26 54/54/54 53/53/53
f 28/28/28 8/8/8 54/54/54
f 40/40/40 61/61/61 62/62/62
f 63/63/63 30/30/30 64/64/64
f 22/22/22 65/65/65 66/66/66
f 67/67/67 34/34/34 63/63/63
f 30/30/30 66/66/66 64/64/64
f 65/65/65 12/12/12 14/14/14
f 38/38/38 68/68/68 69/69/69
f 61/61/61 38/38/38 69/69/69
f 15/15/15 70/70/70 71/71/71
f 41/41/41 72/72/72 73/73/73
f 74/74/74 41/41/41 73/73/73
f 75/75/75 7/7/7 76/76/76
f 51/51/51 77/77/77 9/9/9
f 78/78/78 2/2/2 1/1/1
f 2/2/2 79/79/79 3/3/3
f 2/2/2 78/78/78 80/80/80
f 80/80/80 4/4/4 2/2/2
f 6/6/6 21/21/21 7/7/7
f 9/9/9 77/77/77 10/10/10
f 12/12/12 44/44/44 13/13/13
f 15/15/15 71/71/71 16/16/16
f 16/16/16 81/81/81 18/18/18
f 18/18/18 81/81/81 19/19/19
f 20/20/20 19/19/19 21/21/21
f 22/22/22 25/25/25 23/23/23
f 25/25/25 27/27/27 26/26/26
f 27/27/27 29/29/29 28/28/28
f 29/29/29 20/20/20 6/6/6
f 30/30/30 31/31/31 25/25/25
f 31/31/31 32/32/32 27/27/27
f 32/32/32 33/33/33 29/29/29
f 33/33/33 18/18/18 20/20/20
f 34/34/34 35/35/35 31/31/31
f 35/35/35 36/36/36 32/32/32
f 36/36/36 37/37/37 33/33/33
f 37/37/37 17/17/17 18/18/18
f 38/38/38 39/39/39 35/35/35
f 39/39/39 40/40/40 36/36/36
f 40/40/40 41/41/41 37/37/37
f 41/41/41 15/15/15 17/17/17
f 42/42/42 46/46/46 43/43/43
f 42/42/42 47/47/47 45/45/45
f 47/47/47 49/49/49 48/48/48
f 49/49/49 51/51/51 9/9/9
f 8/8/8 75/75/75 50/50/50
f 52/52/52 42/42/42 44/44/44
f 52/52/52 53/53/53 47/47/47
f 53/53/53 54/54/54 49/49/49
f 54/54/54 8/8/8 51/51/51
f 44/44/44 43/43/43 55/55/55
f 43/43/43 57/57/57 56/56/56
f 46/46/46 59/59/59 57/57/57
f 46/46/46 45/45/45 58/58/58
f 45/45/45 48/48/48 60/60/60
f 48/48/48 9/9/9 11/11/11
f 24/24/24 23/23/23 52/52/52
f 23/23/23 26/26/26 53/53/53
f 26/26/26 28/28/28 54/54/54
f 28/28/28 6/6/6 8/8/8
f 62/62/62 72/72/72 40/40/40
f 40/40/40 39/39/39 61/61/61
f 63/63/63 34/34/34 30/30/30
f 22/22/22 24/24/24 65/65/65
f 67/67/67 38/38/38 34/34/34
f 30/30/30 22/22/22 66/66/66
f 65/65/65 24/24/24 12/12/12
f 38/38/38 67/67/67 68/68/68
f 61/61/61 39/39/39 38/38/38
f 15/15/15 74/74/74 70/70/70
f 41/41/41 40/40/40 72/72/72
f 74/74/74 15/15/15 41/41/41
f 75/75/75 8/8/8 7/7/7
f 51/51/51 50/50/50 77/77/77
